Coordinates
version=1
nRows=13
nColumns=36
inDegrees=yes

Units are S.I. units (second, meters, Newtons, ...)
If the header above contains a line with 'inDegrees', this indicates whether rotational values are in degrees (yes) or radians (no).

endheader
time	pelvis_tilt	pelvis_list	pelvis_rotation	pelvis_tx	pelvis_ty	pelvis_tz	hip_flexion_r	hip_adduction_r	hip_rotation_r	knee_angle_r	knee_angle_r_beta	ankle_angle_r	subtalar_angle_r	mtp_angle_r	hip_flexion_l	hip_adduction_l	hip_rotation_l	knee_angle_l	knee_angle_l_beta	ankle_angle_l	subtalar_angle_l	mtp_angle_l	lumbar_extension	lumbar_bending	lumbar_rotation	arm_flex_r	arm_add_r	arm_rot_r	elbow_flex_r	pro_sup_r	arm_flex_l	arm_add_l	arm_rot_l	elbow_flex_l	pro_sup_l
      3.43333330	     -9.36650097	     -1.62976835	      1.77535306	      0.15755865	      0.73347576	     -0.05281984	     65.27129677	     -7.70582652	      2.50520549	     89.24023852	      1.55753599	     26.79278713	    -17.37311975	     -7.49999987	     65.61997625	    -11.83896082	      6.86707487	     90.88032718	      1.58616093	     25.87308358	     -3.79813599	     -7.49999987	    -64.41253042	     -0.92932598	      3.10400130	     49.17271931	    -15.91650106	     -0.89849816	     52.42860668	     91.70993256	     49.20570092	     -7.00627447	      1.48672751	     49.78225769	     77.37114079
      3.43750000	     -9.06719602	     -1.36718346	      1.77683158	      0.16113176	      0.73737860	     -0.04878511	     64.32336947	     -7.79922173	      2.70243440	     88.62290104	      1.54676142	     27.17935639	    -17.16080220	     -7.49999987	     64.38790254	    -11.61501488	      6.69625067	     89.96886378	      1.57025290	     26.21374233	     -3.89128573	     -7.49999987	    -64.27666207	     -1.15067855	      2.99335733	     49.08614373	    -16.49297271	     -0.76203841	     54.69200033	     91.82231925	     49.37240359	     -7.06023777	      1.56492005	     52.56748543	     77.45554475
      3.44166670	     -8.97933923	     -1.26563573	      1.73077046	      0.16342986	      0.73909725	     -0.05035859	     63.66899456	     -7.65980646	      2.83389028	     88.09185592	      1.53749293	     27.46248295	    -17.55338041	     -7.49999987	     63.56903768	    -11.46599430	      6.65519087	     89.39728983	      1.56027705	     26.23643379	     -4.17072699	     -7.49999987	    -63.37158786	     -1.09813355	      3.00442204	     49.23904008	    -16.56262912	     -0.77174453	     55.71658284	     90.94719693	     49.45159348	     -7.12014252	      1.51150715	     53.72663439	     76.76253770
      3.44583330	     -8.61114417	     -1.23760714	      1.56393441	      0.16696662	      0.74087698	     -0.05376533	     62.65673346	     -7.65882612	      2.79462686	     87.60809354	      1.52904968	     27.82438460	    -17.31515718	     -7.49999987	     62.58841457	    -11.39516873	      6.63171613	     89.08997125	      1.55491333	     26.73234996	     -4.14277688	     -7.49999987	    -63.20069560	     -1.07781357	      3.06379042	     48.79344538	    -17.34459333	     -0.40876860	     59.30908898	     91.29203869	     48.31675314	     -7.47783596	      0.57480832	     58.54422288	     76.82391687
      3.45000000	     -8.14711006	     -0.90244621	      1.61760033	      0.17388243	      0.74204358	     -0.05754154	     61.65961321	     -7.98303825	      3.24591563	     87.52537867	      1.52760604	     27.96964649	    -17.38333853	     -7.49999987	     61.30284775	    -11.19083829	      6.09186374	     88.75599584	      1.54908436	     27.60580048	     -3.55661962	     -7.49999987	    -62.66255160	     -1.00713987	      2.78214707	     48.78529905	    -17.88000638	      0.00098586	     61.28144198	     91.47495891	     48.04634380	     -7.54839671	      0.49131866	     61.09167388	     76.85672481
      3.45416670	     -7.77056790	     -0.66684050	      1.72981202	      0.17694623	      0.74273449	     -0.05889026	     60.70408508	     -8.40462280	      3.49899753	     87.43015982	      1.52594415	     28.28752117	    -17.13995495	     -7.49999987	     60.16289345	    -11.14873693	      5.34157228	     88.44176001	      1.54359991	     28.46832565	     -3.23250306	     -7.49999987	    -61.95761206	     -0.82914262	      2.55624260	     48.63321876	    -18.37605743	      0.71676181	     63.66583019	     90.67991138	     47.51356920	     -7.65602543	      0.66309766	     63.86600513	     76.20153645
      3.45833330	     -7.58843007	     -0.66523853	      1.53790647	      0.17515323	      0.74855449	     -0.05489121	     59.99176642	     -8.67150858	      2.96496172	     86.75703558	      1.51419592	     28.68760848	    -16.35667427	     -7.49999987	     59.33385000	    -11.27346460	      4.94264162	     87.86898885	      1.53360317	     28.39770674	     -3.59249808	     -7.49999987	    -61.41338087	     -0.81215360	      2.59534527	     48.76287650	    -18.96425074	      1.44696154	     66.41197790	     91.00085048	     47.16636686	     -8.07391079	      0.73263951	     67.64443330	     76.23252153
      3.46250000	     -7.75637818	     -0.80516692	      1.39594308	      0.17709132	      0.75038638	     -0.04796536	     59.93484981	     -8.70878489	      2.15343342	     86.62100948	      1.51182182	     29.09162020	    -15.53852984	     -7.49999987	     59.28718857	    -11.58476906	      5.04239802	     87.68507030	      1.53039318	     28.20321896	     -3.70804804	     -7.49999987	    -60.50789451	     -0.89411688	      2.73220725	     48.59625363	    -19.29953423	      2.08759978	     69.00372669	     91.27886297	     46.86279712	     -8.71717350	      0.92551958	     71.16169545	     76.21114055
      3.46666670	     -7.78456088	     -0.93811482	      1.26366119	      0.17952485	      0.75323971	     -0.04899726	     59.79955256	     -8.63925088	      1.62022813	     86.34629009	      1.50702706	     29.05568023	    -15.19105351	     -7.49999987	     59.06253910	    -11.83508924	      5.27109608	     87.55950549	      1.52820166	     27.75244972	     -3.84753540	     -7.49999987	    -59.68206226	     -0.97948244	      2.78770345	     48.58614149	    -19.78360900	      2.72337453	     71.89747326	     91.52228190	     46.71406200	     -9.33377661	      1.09926252	     74.73286484	     76.13990815
      3.47083330	     -7.66015568	     -1.05280258	      1.10495563	      0.18793968	      0.75195742	     -0.05124872	     59.34776188	     -8.52566622	      1.28183912	     86.33168098	      1.50677208	     29.21235773	    -15.33359303	     -7.49999987	     58.62059950	    -12.20084730	      5.33048556	     87.65774263	      1.52991622	     27.95417721	     -3.61793919	     -7.49999987	    -58.70070119	     -0.99561541	      2.75686893	     48.21885571	    -20.35120099	      3.05041711	     74.93336528	     91.84563147	     45.84089079	     -9.93778348	      0.84786120	     78.50815146	     75.86370534
      3.47500000	     -7.38696101	     -1.15629344	      0.93745438	      0.19580050	      0.75820230	     -0.05321835	     58.28169750	     -8.33017441	      1.13324160	     85.95986319	      1.50028264	     28.90815978	    -15.74972325	     -7.49999987	     57.62661626	    -12.44904781	      5.22656872	     87.45404999	      1.52636112	     28.03485600	     -3.33584344	     -7.49999987	    -57.81578402	     -0.99008285	      2.87986235	     47.51965477	    -21.15638461	      3.47642135	     77.56912765	     91.96711702	     45.01216818	    -10.41602198	      1.12074236	     81.85780093	     75.70503205
      3.47916670	     -7.10935438	     -1.09277878	      0.80898906	      0.20082703	      0.76322618	     -0.05430686	     57.12045709	     -8.38110829	      1.23296518	     85.34234663	      1.48950494	     28.96359822	    -15.72728619	     -7.49999987	     56.43350241	    -12.50959124	      4.91447038	     87.02217268	      1.51882344	     28.20745878	     -3.17018854	     -7.49999987	    -56.94333180	     -0.97179297	      2.90841969	     46.58219104	    -21.95192274	      4.07134496	     80.54048457	     91.66450883	     43.93095657	    -10.76118250	      1.21672884	     85.12898537	     75.05805409
      3.48333330	     -6.94644879	     -0.93922874	      0.61239339	      0.20262867	      0.76609102	     -0.05670557	     56.27951156	     -8.53423056	      1.53041008	     84.72408964	      1.47871432	     28.79524172	    -15.44737302	     -7.49999987	     55.45670256	    -12.26548347	      4.45212289	     86.53957390	      1.51040050	     28.11800930	     -3.73170361	     -7.49999987	    -55.83248153	     -1.07205627	      2.92399418	     45.82557425	    -22.92364725	      4.86438927	     83.26939266	     90.74697242	     43.02164323	    -10.94914070	      1.51344749	     88.35273189	     74.27063304
